<svg xmlns="http://www.w3.org/2000/svg" width="20" height="20" viewBox="0 0 24 24" fill="none" stroke="currentColor" stroke-width="1.8" stroke-linecap="round" stroke-linejoin="round">
  <path d="M21 12.79A9 9 0 1 1 11.21 3 7 7 0 0 0 21 12.79z" fill="currentColor" opacity="0.1"/>
  <path d="M21 12.79A9 9 0 1 1 11.21 3 7 7 0 0 0 21 12.79z"/>
  <circle cx="10" cy="10" r="1" fill="currentColor" opacity="0.25"/>
  <circle cx="7.5" cy="14" r="0.7" fill="currentColor" opacity="0.18"/>
  <circle cx="13" cy="15.5" r="1.2" fill="currentColor" opacity="0.2"/>
  <path d="M19.5 4l.5 1.5L21.5 6l-1.5.5L19.5 8l-.5-1.5L17.5 6l1.5-.5z" fill="currentColor" opacity="0.5" stroke="none"/>
  <path d="M22 10.5l.3.8.8.3-.8.3-.3.8-.3-.8-.8-.3.8-.3z" fill="currentColor" opacity="0.35" stroke="none"/>
</svg>
