<svg xmlns="http://www.w3.org/2000/svg" width="20" height="20" viewBox="0 0 24 24" fill="currentColor" stroke="none">
  <circle cx="12" cy="12" r="3.8"/>
  <circle cx="11" cy="11" r="1.4" opacity="0.15" fill="none" stroke="currentColor" stroke-width="0.4"/>
  <path d="M12 0.5 L12.7 7.5 L12 6 L11.3 7.5 Z"/>
  <path d="M12 23.5 L11.3 16.5 L12 18 L12.7 16.5 Z"/>
  <path d="M0.5 12 L7.5 11.3 L6 12 L7.5 12.7 Z"/>
  <path d="M23.5 12 L16.5 12.7 L18 12 L16.5 11.3 Z"/>
  <path d="M19.5 4.5 L15.5 7.6 L16.5 8.6 Z" opacity="0.8"/>
  <path d="M4.5 4.5 L8.5 7.6 L7.5 8.6 Z" opacity="0.8"/>
  <path d="M19.5 19.5 L16.5 15.4 L15.5 16.4 Z" opacity="0.8"/>
  <path d="M4.5 19.5 L7.5 15.4 L8.5 16.4 Z" opacity="0.8"/>
</svg>
